<svg width="24" height="25" viewBox="0 0 24 25" fill="none" xmlns="http://www.w3.org/2000/svg">
<path fill-rule="evenodd" clip-rule="evenodd" d="M7 4.5C5.34315 4.5 4 5.84315 4 7.5V17.5C4 19.1569 5.34315 20.5 7 20.5H17C18.6569 20.5 20 19.1569 20 17.5V11.5C20 10.9477 20.4477 10.5 21 10.5C21.5523 10.5 22 10.9477 22 11.5V17.5C22 20.2614 19.7614 22.5 17 22.5H7C4.23858 22.5 2 20.2614 2 17.5V7.5C2 4.73858 4.23858 2.5 7 2.5H13C13.5523 2.5 14 2.94772 14 3.5C14 4.05228 13.5523 4.5 13 4.5H7Z" fill="#18181B"/>
<path fill-rule="evenodd" clip-rule="evenodd" d="M19.1974 4.5C18.9845 4.5 18.7803 4.58457 18.6298 4.73509L10.7528 12.6121L10.3744 14.1256L11.8879 13.7473L19.7649 5.87021C19.9155 5.71969 20 5.51553 20 5.30265C20 5.08978 19.9155 4.88562 19.7649 4.73509C19.6144 4.58457 19.4102 4.5 19.1974 4.5ZM17.2156 3.32088C17.7412 2.79528 18.4541 2.5 19.1974 2.5C19.9407 2.5 20.6535 2.79528 21.1791 3.32088C21.7047 3.84648 22 4.55934 22 5.30265C22 6.04596 21.7047 6.75883 21.1791 7.28443L13.1062 15.3573C12.9781 15.4855 12.8175 15.5764 12.6417 15.6204L9.24256 16.4701C8.90178 16.5553 8.54129 16.4555 8.29291 16.2071C8.04453 15.9587 7.94468 15.5982 8.02988 15.2575L8.87966 11.8583C8.92362 11.6825 9.01453 11.5219 9.14269 11.3938L17.2156 3.32088Z" fill="#18181B"/>
<path fill-rule="evenodd" clip-rule="evenodd" d="M15.2929 5.79289C15.6834 5.40237 16.3166 5.40237 16.7071 5.79289L18.7071 7.79289C19.0976 8.18342 19.0976 8.81658 18.7071 9.20711C18.3166 9.59763 17.6834 9.59763 17.2929 9.20711L15.2929 7.20711C14.9024 6.81658 14.9024 6.18342 15.2929 5.79289Z" fill="#18181B"/>
</svg>
